<svg width="41" height="40" viewBox="0 0 41 40" fill="none" xmlns="http://www.w3.org/2000/svg">
<path d="M21.8594 25.8223L21.8594 15.6172C21.8594 13.9408 21.2979 12.5247 20.1748 11.3691C19.0355 10.1973 17.4323 9.61133 15.3652 9.61133C13.819 9.61133 12.4355 10.2217 11.2148 11.4424C9.97786 12.6631 9.35938 14.0547 9.35938 15.6172L9.35938 30.7051L41 30.7051V32.4629L7.60156 32.4629L7.60156 15.6172C7.60156 13.5664 8.39095 11.7598 9.96973 10.1973C11.5485 8.63477 13.347 7.85352 15.3652 7.85352C17.8555 7.85352 19.8574 8.61035 21.3711 10.124C22.8685 11.6377 23.6172 13.4688 23.6172 15.6172L23.6172 25.8223H21.8594ZM25.375 25.8223L25.375 15.6172C25.375 13.9245 24.9681 12.362 24.1543 10.9297C23.3242 9.48112 22.1361 8.31738 20.5898 7.43848C19.0436 6.54329 17.3021 6.0957 15.3652 6.0957C12.8587 6.0957 10.6452 7.05599 8.72461 8.97656C6.80404 10.8809 5.84375 13.0944 5.84375 15.6172L5.84375 34.2207L41 34.2207V35.9785L4.08594 35.9785L4.08594 15.6172C4.08594 13.6478 4.60677 11.7923 5.64844 10.0508C6.6901 8.30924 8.08171 6.92578 9.82324 5.90039C11.5648 4.85872 13.4121 4.33789 15.3652 4.33789C17.5788 4.33789 19.597 4.85872 21.4199 5.90039C23.2266 6.94206 24.6344 8.32552 25.6436 10.0508C26.6364 11.7598 27.1328 13.6152 27.1328 15.6172L27.1328 25.8223H25.375ZM28.8906 25.8223L28.8906 15.6172C28.8906 13.8757 28.5488 12.2074 27.8652 10.6123C27.1654 9.01725 26.2295 7.63379 25.0576 6.46191C23.8695 5.27376 22.4372 4.32975 20.7607 3.62988C19.068 2.93001 17.2695 2.58008 15.3652 2.58008C13.0866 2.58008 10.9463 3.17415 8.94434 4.3623C6.92611 5.55046 5.32292 7.15365 4.13477 9.17188C2.93034 11.1738 2.32813 13.3223 2.32813 15.6172L2.32813 37.7363L41 37.7363V39.4941L0.570313 39.4941L0.570313 15.6172C0.570313 13.013 1.25391 10.5716 2.62109 8.29297C3.97201 6.01432 5.78678 4.19954 8.06543 2.84863C10.3441 1.49772 12.7773 0.822266 15.3652 0.822266C17.6764 0.822266 19.8086 1.22103 21.7617 2.01855C23.6986 2.81608 25.3099 3.8903 26.5957 5.24121C27.8815 6.59212 28.8825 8.16276 29.5986 9.95313C30.2985 11.7435 30.6484 13.6315 30.6484 15.6172L30.6484 25.8223H28.8906ZM41 27.1895V28.9473L11.1172 28.9473L11.1172 15.6172C11.1172 14.4616 11.5404 13.4688 12.3867 12.6387C13.2331 11.7923 14.2259 11.3691 15.3652 11.3691C18.5228 11.3691 20.1016 12.7852 20.1016 15.6172L20.1016 25.8223L18.3438 25.8223L18.3438 15.6172C18.3438 14.8359 18.124 14.2256 17.6846 13.7861C17.2451 13.3467 16.472 13.127 15.3652 13.127C14.6491 13.127 14.055 13.3711 13.583 13.8594C13.111 14.3314 12.875 14.9173 12.875 15.6172L12.875 27.1895L41 27.1895Z" fill="#fff"/>
</svg>
